<?xml version="1.0" encoding="utf-8"?>
<!-- Generator: Adobe Illustrator 24.0.2, SVG Export Plug-In . SVG Version: 6.00 Build 0)  -->
<svg version="1.1" id="Layer_1" xmlns="http://www.w3.org/2000/svg" xmlns:xlink="http://www.w3.org/1999/xlink" x="0px" y="0px"
	 viewBox="0 0 768 1366" style="enable-background:new 0 0 768 1366;" xml:space="preserve">
<style type="text/css">
	.st0{fill:#292D2C;}
	.st1{fill:#37704A;}
	.st2{fill:#0F7C5D;}
</style>
<path class="st0" d="M-0.5,1366.5c74.72-61.79,177.81-162.5,256-311c117.46-223.09,82.44-371.17,168-593
	c47.65-123.55,141-291.46,344-462h-768V1366.5z"/>
<path class="st1" d="M-16,1367c74.72-61.79,177.81-162.5,256-311c117.46-223.09,82.44-371.17,168-593
	C455.65,339.45,549,171.54,752,1H-16V1367z"/>
<path class="st2" d="M-36,1366c74.72-61.79,177.81-162.5,256-311c117.46-223.09,82.44-371.17,168-593
	C435.65,338.45,529,170.54,732,0H-36V1366z"/>
</svg>
