<?xml version="1.0" encoding="utf-8"?>
<!-- Generator: Adobe Illustrator 24.0.2, SVG Export Plug-In . SVG Version: 6.00 Build 0)  -->
<svg version="1.1" id="Layer_2" xmlns="http://www.w3.org/2000/svg" xmlns:xlink="http://www.w3.org/1999/xlink" x="0px" y="0px"
	 viewBox="0 0 4775.85 3009.52" style="enable-background:new 0 0 4775.85 3009.52;" xml:space="preserve">
<style type="text/css">
	.st0{fill:#E1D1C3;}
	.st1{clip-path:url(#SVGID_2_);}
	.st2{clip-path:url(#SVGID_4_);fill:#E1D1C3;}
	.st3{clip-path:url(#SVGID_4_);}
	.st4{clip-path:url(#SVGID_6_);fill:#FFFFFF;}
	.st5{clip-path:url(#SVGID_6_);fill:#514039;}
	.st6{clip-path:url(#SVGID_6_);fill:#B1CFD1;}
	.st7{opacity:0.67;clip-path:url(#SVGID_6_);}
	.st8{clip-path:url(#SVGID_8_);fill:#E2E2E1;}
	.st9{clip-path:url(#SVGID_6_);fill:#FAE3C4;}
	.st10{clip-path:url(#SVGID_10_);fill:#E2E2E1;}
	.st11{clip-path:url(#SVGID_6_);fill:#F29491;}
	.st12{clip-path:url(#SVGID_12_);fill:#E2E2E1;}
	.st13{clip-path:url(#SVGID_6_);fill:#EBAD98;}
	.st14{clip-path:url(#SVGID_14_);fill:#E2E2E1;}
	.st15{clip-path:url(#SVGID_6_);fill:#F5D09A;}
	.st16{clip-path:url(#SVGID_16_);fill:#E2E2E1;}
	.st17{clip-path:url(#SVGID_6_);fill:#F39A96;}
	.st18{clip-path:url(#SVGID_18_);fill:#E2E2E1;}
	.st19{clip-path:url(#SVGID_20_);fill:#E2E2E1;}
</style>
<rect class="st0" width="4775.85" height="3009.52"/>
<g>
	<g>
		<defs>
			<rect id="SVGID_1_" x="987.93" y="105" width="2800" height="2800"/>
		</defs>
		<clipPath id="SVGID_2_">
			<use xlink:href="#SVGID_1_"  style="overflow:visible;"/>
		</clipPath>
		<g class="st1">
			<defs>
				<rect id="SVGID_3_" x="987.93" y="105" width="2800" height="2800"/>
			</defs>
			<clipPath id="SVGID_4_">
				<use xlink:href="#SVGID_3_"  style="overflow:visible;"/>
			</clipPath>
			<rect x="987.93" y="105" class="st2" width="2800" height="2800"/>
			<g class="st3">
				<defs>
					<rect id="SVGID_5_" x="987.93" y="105" width="2800" height="2800"/>
				</defs>
				<clipPath id="SVGID_6_">
					<use xlink:href="#SVGID_5_"  style="overflow:visible;"/>
				</clipPath>
				<path class="st4" d="M2169.56,2635.02c-2.21,0-4-1.79-4-4V1465.81c0-2.21,1.79-4,4-4h106.16v-58.38c0-2.21,1.79-4,4-4h217.13
					c2.21,0,4,1.79,4,4v58.38h106.16c2.21,0,4,1.79,4,4v1165.21c0,2.21-1.79,4-4,4H2169.56z"/>
				<path class="st5" d="M2496.85,1403.43v62.38h110.16v1165.21h-437.45V1465.81h110.16v-62.38H2496.85 M2496.85,1395.43h-217.13
					c-4.42,0-8,3.58-8,8v54.38h-102.16c-4.42,0-8,3.58-8,8v1165.21c0,4.42,3.58,8,8,8h437.45c4.42,0,8-3.58,8-8V1465.81
					c0-4.42-3.58-8-8-8h-102.16v-54.38C2504.85,1399.01,2501.27,1395.43,2496.85,1395.43"/>
				<rect x="2184.57" y="1480.81" class="st6" width="407.45" height="1135.21"/>
				<g class="st7">
					<g>
						<defs>
							<rect id="SVGID_7_" x="2294.73" y="1418.43" width="187.13" height="84.94"/>
						</defs>
						<clipPath id="SVGID_8_">
							<use xlink:href="#SVGID_7_"  style="overflow:visible;"/>
						</clipPath>
						<rect x="2294.72" y="1418.43" class="st8" width="187.13" height="84.94"/>
					</g>
				</g>
				<path class="st4" d="M1257.26,1249.19c-2.21,0-4-1.79-4-4V535.67c0-2.21,1.79-4,4-4h148.63v-43.78c0-2.21,1.79-4,4-4h404.27
					c2.21,0,4,1.79,4,4v43.78h148.63c2.21,0,4,1.79,4,4v709.52c0,2.21-1.79,4-4,4H1257.26z"/>
				<path class="st5" d="M1814.15,487.89v47.78h152.63v709.52h-709.52V535.67h152.63v-47.78H1814.15 M1814.15,479.89h-404.27
					c-4.42,0-8,3.58-8,8v39.78h-144.63c-4.42,0-8,3.58-8,8v709.52c0,4.42,3.58,8,8,8h709.52c4.42,0,8-3.58,8-8V535.67
					c0-4.42-3.58-8-8-8h-144.63v-39.78C1822.15,483.48,1818.57,479.89,1814.15,479.89"/>
				<rect x="1272.26" y="550.67" class="st9" width="679.52" height="679.52"/>
				<g class="st7">
					<g>
						<defs>
							<rect id="SVGID_9_" x="1424.89" y="502.89" width="374.27" height="84.94"/>
						</defs>
						<clipPath id="SVGID_10_">
							<use xlink:href="#SVGID_9_"  style="overflow:visible;"/>
						</clipPath>
						<rect x="1424.89" y="502.89" class="st10" width="374.27" height="84.94"/>
					</g>
				</g>
				<path class="st4" d="M2205.61,1284.74c-1.96,0-3.67-1.44-3.96-3.44l-99.51-702.51c-0.31-2.19,1.21-4.21,3.4-4.52l273.52-38.75
					l37.08-106.77c0.57-1.65,2.12-2.69,3.78-2.69c0.44,0,0.88,0.07,1.31,0.22l211.2,73.34l24.51-3.47c0.19-0.03,0.37-0.04,0.56-0.04
					c0.86,0,1.71,0.28,2.41,0.8c0.85,0.64,1.41,1.59,1.56,2.64l1.51,10.68l140.16,48.67c2.09,0.73,3.19,3,2.47,5.09l-37.71,108.58
					c-0.35,1-1.08,1.82-2.03,2.29c-0.55,0.27-1.15,0.4-1.74,0.4c-0.44,0-0.89-0.07-1.31-0.22l-80.44-27.93l78.61,554.95
					c0.15,1.05-0.13,2.12-0.76,2.96c-0.64,0.85-1.59,1.41-2.64,1.56l-551.39,78.11C2205.99,1284.73,2205.8,1284.74,2205.61,1284.74"
					/>
				<path class="st5" d="M2419.92,430.07l212.11,73.66l25.46-3.61l1.86,13.09l142.46,49.47l-37.71,108.58l-86.63-30.08l79.53,561.44
					l-551.39,78.11l-99.51-702.51l277.07-39.25l-0.96-0.33L2419.92,430.07 M2419.92,422.07c-3.31,0-6.41,2.07-7.56,5.38
					l-36.28,104.46l-271.1,38.4c-2.1,0.3-4,1.42-5.27,3.11c-1.28,1.7-1.82,3.83-1.53,5.93l99.51,702.51
					c0.57,3.99,3.99,6.88,7.91,6.88c0.37,0,0.75-0.03,1.13-0.08l551.39-78.11c2.1-0.3,4-1.42,5.27-3.11
					c1.28-1.7,1.82-3.83,1.53-5.93l-77.69-548.46l74.25,25.78c0.85,0.3,1.74,0.44,2.62,0.44c1.2,0,2.39-0.27,3.49-0.8
					c1.91-0.93,3.37-2.57,4.07-4.57l37.71-108.58c1.45-4.17-0.76-8.73-4.93-10.18l-137.85-47.87l-1.17-8.26
					c-0.56-3.99-3.99-6.88-7.91-6.88c-0.37,0-0.75,0.03-1.13,0.08l-23.55,3.34l-210.28-73.03
					C2421.67,422.21,2420.79,422.07,2419.92,422.07"/>
				
					<rect x="2168.11" y="550.67" transform="matrix(0.9901 -0.1403 0.1403 0.9901 -100.8523 349.8379)" class="st11" width="526.89" height="679.52"/>
				<g class="st7">
					<g>
						<defs>
							<rect id="SVGID_11_" x="2401.31" y="449.16" width="381.42" height="203.02"/>
						</defs>
						<clipPath id="SVGID_12_">
							<use xlink:href="#SVGID_11_"  style="overflow:visible;"/>
						</clipPath>
						
							<rect x="2549.54" y="363.54" transform="matrix(0.3281 -0.9447 0.9447 0.3281 1221.4998 2818.5933)" class="st12" width="84.94" height="374.27"/>
					</g>
				</g>
				<path class="st4" d="M3030.38,1657.11c-2.21,0-4-1.79-4-4V487.89c0-2.21,1.79-4,4-4h145.86l187.87-158.23
					c0.72-0.61,1.64-0.94,2.58-0.94c0.11,0,0.23,0.01,0.34,0.01c1.06,0.09,2.03,0.6,2.72,1.41l74.04,87.91
					c1.42,1.69,1.21,4.21-0.48,5.64l-76.22,64.2h100.74c2.21,0,4,1.79,4,4v1165.21c0,2.21-1.79,4-4,4H3030.38z"/>
				<path class="st5" d="M3366.69,328.72l74.04,87.91l-84.6,71.26h111.7v1165.21h-437.45V487.89h147.32L3366.69,328.72
					 M3366.69,320.72c-1.88,0-3.71,0.66-5.15,1.88l-186.75,157.29h-144.4c-4.42,0-8,3.58-8,8v1165.21c0,4.42,3.58,8,8,8h437.45
					c4.42,0,8-3.58,8-8V487.89c0-4.42-3.58-8-8-8h-89.78l67.84-57.14c1.62-1.37,2.64-3.32,2.82-5.44c0.18-2.11-0.49-4.21-1.85-5.84
					l-74.04-87.91c-1.37-1.62-3.32-2.64-5.44-2.82C3367.14,320.73,3366.91,320.72,3366.69,320.72"/>
				<rect x="3045.38" y="502.89" class="st13" width="407.45" height="1135.21"/>
				<g class="st7">
					<g>
						<defs>
							<rect id="SVGID_13_" x="3078.62" y="349.86" width="340.98" height="306.07"/>
						</defs>
						<clipPath id="SVGID_14_">
							<use xlink:href="#SVGID_13_"  style="overflow:visible;"/>
						</clipPath>
						
							<rect x="3061.97" y="460.42" transform="matrix(0.7649 -0.6442 0.6442 0.7649 440.0291 2211.3079)" class="st14" width="374.27" height="84.94"/>
					</g>
				</g>
				<path class="st4" d="M2741.12,2685.28c-2.21,0-4-1.79-4-4v-814.3c0-2.21,1.79-4,4-4h172.16v-51.15c0-2.21,1.79-4,4-4h461.98
					c2.21,0,4,1.79,4,4v51.15h172.16c2.21,0,4,1.79,4,4v814.3c0,2.21-1.79,4-4,4H2741.12z"/>
				<path class="st5" d="M3379.26,1811.83v55.15h176.16v814.3h-814.3v-814.3h176.16v-55.15H3379.26 M3379.26,1803.83h-461.98
					c-4.42,0-8,3.58-8,8v47.15h-168.16c-4.42,0-8,3.58-8,8v814.3c0,4.42,3.58,8,8,8h814.3c4.42,0,8-3.58,8-8v-814.3
					c0-4.42-3.58-8-8-8h-168.16v-47.15C3387.26,1807.41,3383.68,1803.83,3379.26,1803.83"/>
				<rect x="2756.12" y="1881.98" class="st15" width="784.3" height="784.3"/>
				<g class="st7">
					<g>
						<defs>
							<rect id="SVGID_15_" x="2932.29" y="1826.83" width="431.97" height="98.04"/>
						</defs>
						<clipPath id="SVGID_16_">
							<use xlink:href="#SVGID_15_"  style="overflow:visible;"/>
						</clipPath>
						<rect x="2932.28" y="1826.83" class="st16" width="431.98" height="98.04"/>
					</g>
				</g>
				<path class="st4" d="M1306.37,2519.53c-2.21,0-4-1.79-4-4v-836.5l-84.76-84.77c-1.56-1.56-1.56-4.09,0-5.66l84.76-84.76v-15.48
					c0-2.21,1.79-4,4-4h15.48l109.52-109.52c0.78-0.78,1.8-1.17,2.83-1.17c1.02,0,2.05,0.39,2.83,1.17l90.54,90.54
					c0.75,0.75,1.17,1.77,1.17,2.83s-0.42,2.08-1.17,2.83l-13.33,13.33h261.23l-8.32-7.75c-0.78-0.72-1.23-1.72-1.27-2.78
					c-0.04-1.06,0.35-2.09,1.07-2.87l87.24-93.72c0.79-0.85,1.86-1.27,2.93-1.27c0.98,0,1.95,0.35,2.72,1.07l221.28,205.98
					c0.78,0.72,1.23,1.72,1.27,2.78c0.04,1.06-0.35,2.09-1.07,2.87l-87.24,93.72c-0.72,0.78-1.72,1.23-2.78,1.27
					c-0.05,0-0.1,0-0.14,0c-1.01,0-1.98-0.38-2.73-1.07l-17.63-16.41v849.34c0,2.21-1.79,4-4,4H1306.37z"/>
				<path class="st5" d="M1434.2,1377.67l90.54,90.54l-20.16,20.16h281.05l-15.77-14.68l87.24-93.72l221.28,205.98l-87.24,93.72
					l-24.36-22.67v858.53h-660.41v-838.15l-85.93-85.94l85.93-85.94v-17.14h17.14L1434.2,1377.67 M1434.2,1369.67
					c-2.05,0-4.09,0.78-5.66,2.34l-108.35,108.35h-13.82c-4.42,0-8,3.58-8,8v13.82l-83.59,83.59c-3.12,3.12-3.12,8.19,0,11.31
					l83.59,83.59v834.84c0,4.42,3.58,8,8,8h660.41c4.42,0,8-3.58,8-8v-840.15l10.91,10.15c1.54,1.43,3.5,2.14,5.45,2.14
					c2.14,0,4.28-0.86,5.86-2.55l87.24-93.72c1.45-1.55,2.22-3.62,2.14-5.74c-0.08-2.12-0.99-4.12-2.54-5.57l-221.28-205.98
					c-1.54-1.43-3.5-2.14-5.45-2.14c-2.14,0-4.28,0.86-5.86,2.55l-87.24,93.72c-1.45,1.55-2.22,3.62-2.14,5.74
					c0.08,2.12,0.99,4.12,2.54,5.57l0.88,0.82h-241.4l6.5-6.5c1.5-1.5,2.34-3.54,2.34-5.66c0-2.12-0.84-4.16-2.34-5.66l-90.54-90.54
					C1438.29,1370.45,1436.24,1369.67,1434.2,1369.67"/>
				<rect x="1321.37" y="1503.37" class="st17" width="630.41" height="997.16"/>
				<g class="st7">
					<g>
						<defs>
							<rect id="SVGID_17_" x="1241.64" y="1398.89" width="261.88" height="261.87"/>
						</defs>
						<clipPath id="SVGID_18_">
							<use xlink:href="#SVGID_17_"  style="overflow:visible;"/>
						</clipPath>
						
							<rect x="1236.43" y="1480.81" transform="matrix(0.7071 -0.7071 0.7071 0.7071 -679.7289 1418.6375)" class="st18" width="272.31" height="98.04"/>
					</g>
				</g>
				<g class="st7">
					<g>
						<defs>
							<rect id="SVGID_19_" x="1791.06" y="1401.17" width="266.12" height="257.3"/>
						</defs>
						<clipPath id="SVGID_20_">
							<use xlink:href="#SVGID_19_"  style="overflow:visible;"/>
						</clipPath>
						
							<rect x="1875.1" y="1393.67" transform="matrix(0.6814 -0.732 0.732 0.6814 -506.65 1895.8252)" class="st19" width="98.04" height="272.31"/>
					</g>
				</g>
			</g>
		</g>
	</g>
</g>
</svg>
