<?xml version="1.0" encoding="utf-8"?>
<!-- Generator: Adobe Illustrator 24.0.2, SVG Export Plug-In . SVG Version: 6.00 Build 0)  -->
<svg version="1.1" xmlns="http://www.w3.org/2000/svg" xmlns:xlink="http://www.w3.org/1999/xlink" x="0px" y="0px"
	 viewBox="0 0 768 1366" style="enable-background:new 0 0 768 1366;" xml:space="preserve">
<style type="text/css">
	.st0{fill:#FF7BAC;}
	.st1{fill:#0071BC;}
	.st2{opacity:0.9;fill:#FFFFFF;}
</style>
<g id="Layer_1">
	<path class="st0" d="M710.72,841.47c-16.29,17.5-39.98,26.59-66.22,27.54l0.14,0.93L529.8,882.12l-6.37,0.67
		c-5.92,0.51-11.76,0.71-17.5,0.56c-35.16-0.82-66.38-13.76-84.57-38.25c-34.56-46.6-8.87-117.39,57.4-158.14
		c1.94-1.19,3.88-2.34,5.84-3.44c0.97-0.56,1.95-1.1,2.92-1.63c5.85-3.19,11.8-6.04,17.8-8.54l16.24-7.79
		c40.34-25.35,104.7-17.35,154.18,21.95C732.37,732.48,748.02,801.41,710.72,841.47z"/>
	<path class="st1" d="M498.54,778.89c-0.97,0.53-1.95,1.07-2.92,1.63l-0.1-0.18L498.54,778.89z"/>
	<path class="st0" d="M5.48,902.63c11.92-3.75,23.74-6.14,35.17-7.27c40.81-16.52,91.51,2.61,118.26,46.7
		c29.31,48.3,18.76,108.27-23.54,133.93c-18.48,11.21-39.96,14.03-60.73,9.61l-0.2,0.79l-93.58-12.67l-5.19-0.7
		c-4.78-0.75-9.4-1.75-13.84-3c-27.15-7.64-47.23-24.49-53.32-48.3C-103.05,976.45-59.64,923.13,5.48,902.63z"/>
	<path class="st1" d="M326.85,6.74c3.34-15.99,7.81-30.92,13.17-44.53c8.23-57.33,53.06-100.79,106.37-99.91
		c58.41,0.96,104.88,54.77,103.81,120.18c-0.47,28.57-9.93,54.63-25.31,74.83l0.58,0.77l-62.98,96.06l-3.49,5.32
		c-3.31,4.83-6.75,9.32-10.3,13.41c-21.73,25.09-47.57,35.81-71.73,25.97C331.04,180.13,308.6,94.12,326.85,6.74z"/>
	<path class="st1" d="M37.13,470.01c-10.84,1.31-21.42,1.4-31.51,0.41c-37.58,7.81-79.27-18.46-96.98-63.18
		c-19.4-48.99-2.67-101.56,37.36-117.41c17.49-6.92,36.53-5.7,54.04,1.96l0.27-0.68l79.8,27.96l4.42,1.55
		c4.06,1.52,7.96,3.24,11.66,5.16c22.65,11.71,37.99,30.53,40.29,53.21C140.85,422.1,96.37,462.85,37.13,470.01z"/>
</g>
<g id="Layer_2">
	<rect x="-14" y="-13" class="st2" width="789" height="1392"/>
</g>
</svg>
